<?xml version="1.0"?>
<svg width="978" height="244" xmlns="http://www.w3.org/2000/svg" xmlns:svg="http://www.w3.org/2000/svg" preserveAspectRatio="xMidYMid meet" version="1.0">
 <g class="layer">
  <title>Layer 1</title>
  <g fill="#8b53ff" id="svg_1" transform="matrix(0.1 0 0 -0.1 0 0)">
   <path d="m545,-327c-132,-46 -249,-93 -260,-104c-20,-19 -20,-33 -20,-749c0,-635 2,-731 15,-744c8,-9 130,-41 278,-74c145,-32 267,-63 270,-69c4,-6 86,-44 182,-84l175,-74l110,1c138,2 946,43 962,49c8,3 13,24 13,59l0,55l-117,97c-65,54 -124,104 -130,112c-20,24 -17,147 3,167c15,15 17,85 22,709c5,644 4,693 -12,709c-16,16 -65,17 -614,18c-328,1 -606,2 -617,3c-11,1 -128,-36 -260,-81zm1023,52c191,-8 362,-18 380,-21c41,-6 47,-20 67,-157c12,-86 15,-217 15,-663l0,-554l-22,-10c-13,-5 -291,-15 -618,-22c-592,-13 -595,-13 -601,7c-3,11 -7,338 -8,728l-3,707l222,0c122,0 378,-7 568,-15zm432,-1523l0,-58l122,-99c68,-55 116,-101 108,-102c-8,-1 -239,-12 -512,-24l-498,-22l-185,106c-102,59 -189,107 -194,107c-13,0 -21,-37 -21,-97c0,-29 -4,-53 -10,-53c-6,0 -10,34 -10,83c0,45 -3,105 -6,133l-7,52l289,7c159,4 329,8 379,9l90,1l5,-30l5,-30l125,-3c69,-1 150,1 180,5c53,8 55,9 58,41c3,30 6,32 43,32l39,0l0,-58zm-770,-397c0,-8 -4,-15 -10,-15c-5,0 -7,7 -4,15c4,8 8,15 10,15c2,0 4,-7 4,-15z" id="svg_2"/>
   <path d="m992,-482c-9,-9 -12,-106 -12,-376l0,-365l398,7c289,6 400,11 410,20c9,9 14,102 19,360c5,294 4,349 -8,357c-23,14 -792,12 -807,-3zm358,-58c0,-5 -19,-14 -42,-20c-24,-6 -74,-21 -113,-33l-70,-22l-25,-98c-14,-53 -29,-96 -35,-94c-6,2 -11,52 -13,117c-4,163 -7,160 163,160c80,0 135,-4 135,-10z" id="svg_3"/>
   <path d="m1862,-1582l3,-53l46,-3c46,-3 47,-3 53,33c12,61 2,75 -55,75l-50,0l3,-52z" id="svg_4"/>
   <path d="m878,-1572c-14,-36 -1,-38 242,-38c131,0 245,3 254,6c9,3 16,15 16,25c0,18 -11,19 -254,19c-194,0 -255,-3 -258,-12z" id="svg_5"/>
   <path d="m1495,-1906c-148,-6 -303,-13 -342,-13c-43,-1 -73,-5 -73,-11c0,-6 39,-36 87,-67l87,-56l426,17c234,10 427,19 429,21c7,8 -14,28 -81,75l-71,50l-96,-2c-53,0 -217,-7 -366,-14z" id="svg_6"/>
   <path d="m3110,-350c-287,-106 -520,-544 -520,-979c0,-181 25,-302 90,-431c46,-90 82,-132 190,-219c134,-109 188,-134 290,-133c87,2 151,21 229,71c86,56 200,190 260,308c38,76 22,60 -27,-26c-56,-100 -176,-232 -253,-278c-114,-68 -246,-79 -352,-28c-302,144 -388,692 -182,1168c75,173 236,362 361,423c54,26 68,29 165,29l107,0l71,-49c81,-55 119,-99 168,-194c19,-37 31,-56 28,-42c-24,84 -105,184 -240,294c-90,73 -154,99 -250,103c-62,3 -92,-1 -135,-17z" id="svg_7"/>
   <path d="m6009,-339c-68,-22 -159,-81 -222,-145c-166,-166 -274,-402 -314,-689c-14,-103 -15,-137 -5,-246c6,-69 19,-153 28,-186c35,-132 121,-275 198,-332c21,-16 64,-51 97,-80c85,-73 150,-96 259,-91c116,5 191,41 294,139c164,155 270,370 315,639l18,105l53,12c205,45 316,158 234,239c-20,21 -33,25 -65,22c-38,-3 -39,-3 -39,27c0,69 -73,94 -158,55c-31,-14 -44,-16 -47,-7c-2,7 -11,39 -20,72c-28,100 -90,207 -154,267c-176,162 -244,200 -366,205c-44,1 -92,-1 -106,-6zm377,-139c69,-44 119,-94 165,-165c43,-66 105,-245 115,-331c4,-31 10,-58 13,-61c4,-2 40,11 81,30c41,18 96,37 122,40c42,6 50,4 72,-18c32,-32 33,-54 4,-97c-30,-44 -114,-90 -212,-116l-80,-21l-18,-107c-35,-212 -116,-406 -231,-552c-117,-148 -238,-217 -382,-218c-71,-1 -88,3 -146,31c-360,178 -400,881 -77,1350c86,125 213,230 318,264c14,5 66,7 115,6c83,-2 95,-5 141,-35z" id="svg_8"/>
   <path d="m6206,-641c-54,-43 -71,-122 -44,-213c25,-85 184,-201 293,-214l47,-5l-7,49c-21,150 -75,304 -121,345c-32,28 -93,59 -118,59c-13,0 -35,-9 -50,-21zm93,-26c20,-41 55,-177 66,-257l7,-49l-39,7c-62,11 -126,48 -147,84c-27,48 -32,148 -9,192c35,67 94,78 122,23z" id="svg_9"/>
   <path d="m5921,-850c-105,-131 -174,-430 -151,-654c18,-174 51,-271 119,-348c46,-51 101,-78 162,-78c153,0 347,260 419,563c29,122 29,124 -29,132c-116,16 -274,104 -363,204c-38,42 -81,117 -114,199c-9,23 -10,23 -43,-18zm30,-89c64,-84 310,-270 359,-271c42,-1 43,-14 12,-116c-54,-171 -146,-338 -234,-421c-43,-40 -107,-73 -157,-80c-49,-7 -71,13 -101,93c-72,191 -71,462 2,679c23,68 68,165 77,164c3,0 22,-22 42,-48z" id="svg_10"/>
   <path d="m7362,-341c-71,-12 -107,-32 -120,-66c-6,-15 -27,-152 -47,-303c-20,-151 -45,-338 -55,-415c-53,-377 -100,-783 -95,-812c7,-40 48,-73 90,-73c29,0 33,-4 39,-34c15,-78 108,-98 151,-33c9,14 20,52 26,86c16,103 49,374 48,401c-1,14 -16,-82 -34,-212c-21,-157 -38,-246 -49,-263c-33,-50 -103,-41 -127,17c-17,42 -10,119 71,728c104,786 108,811 126,831c32,36 82,44 274,44c209,0 237,-5 328,-64c68,-44 109,-98 128,-169c7,-26 13,-38 13,-26c3,68 -55,153 -149,221c-25,18 -64,49 -88,68c-71,57 -153,78 -327,81c-82,1 -174,-2 -203,-7z" id="svg_11"/>
   <path d="m8710,-337c-44,-7 -80,-25 -91,-45c-10,-19 -27,-130 -94,-638c-93,-698 -116,-887 -110,-916c7,-41 42,-72 84,-76c29,-2 36,-8 43,-34c14,-55 39,-68 126,-66c274,6 532,130 686,331c48,63 110,171 120,211c4,14 -7,-3 -23,-36c-104,-220 -281,-373 -518,-448c-90,-28 -282,-53 -325,-43c-36,9 -62,59 -60,117c1,25 44,366 96,759c66,489 100,721 111,737c22,33 47,37 213,32c178,-6 247,-25 356,-99c102,-68 153,-134 202,-258c13,-32 14,-32 8,-6c-9,48 -51,127 -90,173c-39,46 -141,133 -227,193c-113,80 -365,135 -507,112z" id="svg_12"/>
   <path d="m4195,-366c-29,-32 -28,-23 -70,-339c-19,-143 -61,-462 -95,-710c-33,-247 -60,-470 -60,-496c0,-60 33,-99 83,-99c31,0 36,-4 51,-44c20,-52 63,-74 109,-57c31,12 60,63 54,94c-3,18 -5,17 -6,-6c-1,-36 -42,-77 -76,-77c-36,0 -71,38 -78,86c-4,26 27,291 93,779c92,685 101,741 121,758c36,29 67,32 100,8c18,-13 26,-16 23,-7c-8,21 -60,39 -89,32c-23,-6 -25,-3 -25,24c0,71 -87,106 -135,54z" id="svg_13"/>
   <path d="m4863,-362c-28,-31 -30,-41 -53,-214c-10,-82 -26,-198 -34,-259c-8,-60 -20,-150 -26,-200c-19,-152 6,-135 -194,-135c-172,0 -174,0 -180,-22c-3,-13 -6,-35 -6,-50l0,-28l245,0l245,0l4,23c3,12 26,182 52,377c25,195 51,366 58,380c7,17 24,28 49,34c32,8 42,6 70,-13l32,-22l-29,26c-24,22 -36,26 -63,22c-31,-5 -33,-4 -33,22c0,16 -9,40 -21,55c-27,35 -86,36 -116,4z" id="svg_14"/>
   <path d="m4453,-535c0,-22 2,-30 4,-17c2,12 2,30 0,40c-3,9 -5,-1 -4,-23z" id="svg_15"/>
   <path d="m5123,-540c0,-25 2,-35 4,-22c2,12 2,32 0,45c-2,12 -4,2 -4,-23z" id="svg_16"/>
   <path d="m7575,-587c-22,-2 -44,-8 -49,-13c-9,-9 -61,-397 -71,-525c-3,-44 -8,-88 -11,-98c-8,-26 18,-30 88,-13c112,28 245,101 319,175c84,84 112,150 113,267c1,74 -1,84 -27,117c-16,21 -52,49 -80,64c-44,22 -67,26 -147,28c-52,2 -113,1 -135,-2zm247,-31c9,-9 13,-38 12,-87c-3,-149 -92,-271 -265,-360c-50,-26 -93,-44 -97,-41c-5,5 41,409 54,473c6,29 20,32 161,30c85,-1 126,-6 135,-15z" id="svg_17"/>
   <path d="m3262,-620c-60,-27 -145,-111 -197,-194c-43,-69 -125,-260 -125,-287c1,-8 14,20 29,61c92,246 210,393 337,420c73,15 97,3 133,-68c34,-67 49,-82 93,-91c24,-5 37,-16 53,-46c23,-46 63,-69 105,-60c28,6 60,42 60,67c0,7 -6,2 -13,-12c-7,-13 -24,-29 -38,-34c-47,-16 -73,-1 -119,70c-114,176 -205,226 -318,174z" id="svg_18"/>
   <path d="m4442,-625c0,-16 2,-22 5,-12c2,9 2,23 0,30c-3,6 -5,-1 -5,-18z" id="svg_19"/>
   <path d="m8884,-613c-3,-9 -4,-26 -1,-39c3,-17 5,-15 6,10c1,30 3,32 40,32c61,0 192,-20 228,-35c52,-22 93,-120 108,-260c8,-69 -9,-259 -32,-360c-37,-163 -130,-322 -242,-412c-56,-45 -234,-138 -248,-130c-5,3 -9,-24 -11,-59l-3,-64l29,0c52,0 182,39 251,75c243,128 368,363 387,730c13,255 -59,406 -233,491c-47,24 -72,28 -164,32c-92,4 -110,2 -115,-11z" id="svg_20"/>
   <path d="m5112,-640c0,-19 2,-27 5,-17c2,9 2,25 0,35c-3,9 -5,1 -5,-18z" id="svg_21"/>
   <path d="m4432,-705c0,-16 2,-22 5,-12c2,9 2,23 0,30c-3,6 -5,-1 -5,-18z" id="svg_22"/>
   <path d="m5102,-715c0,-16 2,-22 5,-12c2,9 2,23 0,30c-3,6 -5,-1 -5,-18z" id="svg_23"/>
   <path d="m8872,-720c0,-19 2,-27 5,-17c2,9 2,25 0,35c-3,9 -5,1 -5,-18z" id="svg_24"/>
   <path d="m8132,-775c-4,-80 -29,-185 -63,-255c-49,-100 -167,-211 -294,-276c-55,-29 -124,-59 -152,-69c-29,-9 -53,-23 -53,-30c0,-7 135,-138 301,-290c165,-152 304,-288 310,-302c21,-57 -24,-111 -83,-99c-38,8 -138,91 -441,371c-125,115 -235,211 -243,213c-9,2 -14,-4 -13,-20c1,-17 3,-18 6,-5c5,18 23,24 23,7c0,-15 431,-418 507,-472c17,-13 55,-42 83,-65c77,-63 147,-59 170,11c23,69 33,58 -469,515c-75,68 -137,127 -139,131c-2,5 14,14 35,20c142,47 299,143 378,232c87,100 151,274 142,387l-3,46l-2,-50z" id="svg_25"/>
   <path d="m4422,-790c0,-19 2,-27 5,-17c2,9 2,25 0,35c-3,9 -5,1 -5,-18z" id="svg_26"/>
   <path d="m5092,-795c0,-16 2,-22 5,-12c2,9 2,23 0,30c-3,6 -5,-1 -5,-18z" id="svg_27"/>
   <path d="m8862,-800c0,-19 2,-27 5,-17c2,9 2,25 0,35c-3,9 -5,1 -5,-18z" id="svg_28"/>
   <path d="m4412,-870c0,-19 2,-27 5,-17c2,9 2,25 0,35c-3,9 -5,1 -5,-18z" id="svg_29"/>
   <path d="m5082,-875c0,-16 2,-22 5,-12c2,9 2,23 0,30c-3,6 -5,-1 -5,-18z" id="svg_30"/>
   <path d="m8853,-885c0,-22 2,-30 4,-17c2,12 2,30 0,40c-3,9 -5,-1 -4,-23z" id="svg_31"/>
   <path d="m9542,-870c0,-14 2,-19 5,-12c2,6 2,18 0,25c-3,6 -5,1 -5,-13z" id="svg_32"/>
   <path d="m9552,-930c0,-19 2,-27 5,-17c2,9 2,25 0,35c-3,9 -5,1 -5,-18z" id="svg_33"/>
   <path d="m4402,-950c0,-19 2,-27 5,-17c2,9 2,25 0,35c-3,9 -5,1 -5,-18z" id="svg_34"/>
   <path d="m5072,-955c0,-16 2,-22 5,-12c2,9 2,23 0,30c-3,6 -5,-1 -5,-18z" id="svg_35"/>
   <path d="m8842,-960c0,-19 2,-27 5,-17c2,9 2,25 0,35c-3,9 -5,1 -5,-18z" id="svg_36"/>
   <path d="m4392,-1030c0,-19 2,-27 5,-17c2,9 2,25 0,35c-3,9 -5,1 -5,-18z" id="svg_37"/>
   <path d="m5062,-1030c0,-19 2,-27 5,-17c2,9 2,25 0,35c-3,9 -5,1 -5,-18z" id="svg_38"/>
   <path d="m8832,-1040c0,-19 2,-27 5,-17c2,9 2,25 0,35c-3,9 -5,1 -5,-18z" id="svg_39"/>
   <path d="m9563,-1050c0,-25 2,-35 4,-22c2,12 2,32 0,45c-2,12 -4,2 -4,-23z" id="svg_40"/>
   <path d="m4382,-1110c0,-19 2,-27 5,-17c2,9 2,25 0,35c-3,9 -5,1 -5,-18z" id="svg_41"/>
   <path d="m5052,-1110c0,-19 2,-27 5,-17c2,9 2,25 0,35c-3,9 -5,1 -5,-18z" id="svg_42"/>
   <path d="m8822,-1120c0,-19 2,-27 5,-17c2,9 2,25 0,35c-3,9 -5,1 -5,-18z" id="svg_43"/>
   <path d="m2925,-1150c-4,-17 -5,-34 -2,-36c2,-3 7,10 11,27c8,42 0,50 -9,9z" id="svg_44"/>
   <path d="m9553,-1195c0,-27 2,-38 4,-22c2,15 2,37 0,50c-2,12 -4,0 -4,-28z" id="svg_45"/>
   <path d="m5094,-1167c-45,-4 -54,-17 -54,-75l0,-28l108,-1c151,-1 211,-11 234,-39c26,-32 23,-72 -8,-101c-25,-23 -32,-24 -195,-27c-93,-2 -169,-6 -169,-10c0,-13 333,2 357,16c77,43 39,162 -51,162c-31,0 -36,3 -36,24c0,13 -8,34 -17,45c-17,21 -80,42 -113,39c-8,-1 -34,-3 -56,-5z" id="svg_46"/>
   <path d="m8812,-1200c0,-19 2,-27 5,-17c2,9 2,25 0,35c-3,9 -5,1 -5,-18z" id="svg_47"/>
   <path d="m2912,-1220c0,-14 2,-19 5,-12c2,6 2,18 0,25c-3,6 -5,1 -5,-13z" id="svg_48"/>
   <path d="m8803,-1275c0,-22 2,-30 4,-17c2,12 2,30 0,40c-3,9 -5,-1 -4,-23z" id="svg_49"/>
   <path d="m2896,-1311c-3,-34 -5,-96 -5,-138c2,-59 4,-46 10,59c9,142 6,182 -5,79z" id="svg_50"/>
   <path d="m9542,-1285c0,-16 2,-22 5,-12c2,9 2,23 0,30c-3,6 -5,-1 -5,-18z" id="svg_51"/>
   <path d="m8793,-1355c0,-22 2,-30 4,-17c2,12 2,30 0,40c-3,9 -5,-1 -4,-23z" id="svg_52"/>
   <path d="m9532,-1350c0,-14 2,-19 5,-12c2,6 2,18 0,25c-3,6 -5,1 -5,-13z" id="svg_53"/>
   <path d="m9521,-1396c0,-11 3,-14 6,-6c3,7 2,16 -1,19c-3,4 -6,-2 -5,-13z" id="svg_54"/>
   <path d="m8783,-1435c0,-22 2,-30 4,-17c2,12 2,30 0,40c-3,9 -5,-1 -4,-23z" id="svg_55"/>
   <path d="m9511,-1436c0,-11 3,-14 6,-6c3,7 2,16 -1,19c-3,4 -6,-2 -5,-13z" id="svg_56"/>
   <path d="m4370,-1449c19,-4 99,-5 178,-3c136,5 142,4 142,-15c0,-11 -11,-106 -25,-211c-29,-223 -30,-253 -10,-291c16,-32 33,-41 75,-41c26,0 31,-5 40,-40c13,-48 60,-77 104,-66c29,7 66,59 65,91c0,13 -4,8 -10,-12c-27,-93 -143,-76 -155,22c-3,22 11,157 29,300c19,143 33,262 32,263c-2,2 -115,6 -252,7c-136,2 -232,0 -213,-4z" id="svg_57"/>
   <path d="m3433,-1462c-12,-6 -44,-49 -70,-97c-100,-178 -271,-305 -354,-261c-37,20 -97,178 -100,266c-1,19 -3,23 -6,10c-7,-28 15,-132 43,-201c27,-67 100,-149 151,-171c50,-22 113,-17 171,12c67,33 175,149 226,242c31,56 46,74 71,82c56,19 103,-13 106,-72c1,-18 2,-19 6,-5c13,51 -48,107 -102,93c-22,-6 -25,-3 -25,19c0,39 -18,65 -55,81c-19,8 -36,14 -37,13c-2,0 -13,-5 -25,-11z" id="svg_58"/>
   <path d="m9492,-1497c-15,-48 -8,-55 8,-8c7,20 10,38 8,41c-3,2 -10,-13 -16,-33z" id="svg_59"/>
   <path d="m4332,-1500c0,-19 2,-27 5,-17c2,9 2,25 0,35c-3,9 -5,1 -5,-18z" id="svg_60"/>
   <path d="m8773,-1515c0,-22 2,-30 4,-17c2,12 2,30 0,40c-3,9 -5,-1 -4,-23z" id="svg_61"/>
   <path d="m5002,-1515c0,-16 2,-22 5,-12c2,9 2,23 0,30c-3,6 -5,-1 -5,-18z" id="svg_62"/>
   <path d="m4322,-1580c0,-19 2,-27 5,-17c2,9 2,25 0,35c-3,9 -5,1 -5,-18z" id="svg_63"/>
   <path d="m4992,-1590c0,-19 2,-27 5,-17c2,9 2,25 0,35c-3,9 -5,1 -5,-18z" id="svg_64"/>
   <path d="m8763,-1595c0,-22 2,-30 4,-17c2,12 2,30 0,40c-3,9 -5,-1 -4,-23z" id="svg_65"/>
   <path d="m4312,-1660c0,-19 2,-27 5,-17c2,9 2,25 0,35c-3,9 -5,1 -5,-18z" id="svg_66"/>
   <path d="m4982,-1670c0,-19 2,-27 5,-17c2,9 2,25 0,35c-3,9 -5,1 -5,-18z" id="svg_67"/>
   <path d="m8752,-1670c0,-19 2,-27 5,-17c2,9 2,25 0,35c-3,9 -5,1 -5,-18z" id="svg_68"/>
   <path d="m4302,-1740c0,-19 2,-27 5,-17c2,9 2,25 0,35c-3,9 -5,1 -5,-18z" id="svg_69"/>
   <path d="m4972,-1745c0,-16 2,-22 5,-12c2,9 2,23 0,30c-3,6 -5,-1 -5,-18z" id="svg_70"/>
   <path d="m8742,-1745c0,-16 2,-22 5,-12c2,9 2,23 0,30c-3,6 -5,-1 -5,-18z" id="svg_71"/>
   <path d="m4292,-1815c0,-16 2,-22 5,-12c2,9 2,23 0,30c-3,6 -5,-1 -5,-18z" id="svg_72"/>
   <path d="m4962,-1820c0,-19 2,-27 5,-17c2,9 2,25 0,35c-3,9 -5,1 -5,-18z" id="svg_73"/>
   <path d="m4282,-1890c0,-19 2,-27 5,-17c2,9 2,25 0,35c-3,9 -5,1 -5,-18z" id="svg_74"/>
   <path d="m4952,-1895c0,-16 2,-22 5,-12c2,9 2,23 0,30c-3,6 -5,-1 -5,-18z" id="svg_75"/>
   <path d="m4272,-1960c0,-19 2,-27 5,-17c2,9 2,25 0,35c-3,9 -5,1 -5,-18z" id="svg_76"/>
   <path d="m4942,-1965c0,-16 2,-22 5,-12c2,9 2,23 0,30c-3,6 -5,-1 -5,-18z" id="svg_77"/>
  </g>
 </g>
</svg>